<svg width="24" height="22" viewBox="0 0 24 22" fill="none" xmlns="http://www.w3.org/2000/svg">
<path d="M19.0042 15.9976C17.3541 15.9976 16.0117 17.34 16.0117 18.9901C16.0117 20.6401 17.3542 21.9826 19.0042 21.9826C20.6543 21.9826 21.9968 20.6401 21.9968 18.9901C21.9968 17.34 20.6543 15.9976 19.0042 15.9976ZM19.0042 20.1871C18.3441 20.1871 17.8072 19.6502 17.8072 18.9901C17.8072 18.3299 18.3441 17.7931 19.0042 17.7931C19.6644 17.7931 20.2012 18.3299 20.2012 18.9901C20.2012 19.6502 19.6644 20.1871 19.0042 20.1871Z" fill="#2DA0A6"/>
<path d="M23.8092 4.43182C23.6392 4.21427 23.3786 4.08738 23.1024 4.08738H5.54159L4.73361 0.706738C4.63695 0.302767 4.27573 0.0175781 3.86037 0.0175781H0.897755C0.401909 0.0175313 0 0.419439 0 0.915286C0 1.41113 0.401909 1.81304 0.897755 1.81304H3.15175L6.06946 14.0214C6.16611 14.4257 6.52733 14.7105 6.9427 14.7105H20.9179C21.3305 14.7105 21.6902 14.4292 21.7893 14.0288L23.9738 5.20085C24.0399 4.93277 23.9792 4.64937 23.8092 4.43182ZM20.2155 12.9151H7.65131L5.97069 5.88289H21.9553L20.2155 12.9151Z" fill="#2DA0A6"/>
<path d="M8.14095 15.9976C6.49085 15.9976 5.14844 17.34 5.14844 18.9901C5.14844 20.6401 6.4909 21.9826 8.14095 21.9826C9.79101 21.9826 11.1335 20.6401 11.1335 18.9901C11.1335 17.34 9.79101 15.9976 8.14095 15.9976ZM8.14095 20.1871C7.48081 20.1871 6.94395 19.6502 6.94395 18.9901C6.94395 18.3299 7.48081 17.7931 8.14095 17.7931C8.8011 17.7931 9.33796 18.3299 9.33796 18.9901C9.33796 19.6502 8.8011 20.1871 8.14095 20.1871Z" fill="#2DA0A6"/>
</svg>
