<svg width="23" height="23" viewBox="0 0 23 23" fill="none" xmlns="http://www.w3.org/2000/svg">
<path d="M1 3C1 1.89543 1.89543 1 3 1H7C8.10457 1 9 1.89543 9 3V7C9 8.10457 8.10457 9 7 9H3C1.89543 9 1 8.10457 1 7V3Z" stroke="#2DA0A6" stroke-width="2"/>
<path d="M14 3C14 1.89543 14.8954 1 16 1H20C21.1046 1 22 1.89543 22 3V7C22 8.10457 21.1046 9 20 9H16C14.8954 9 14 8.10457 14 7V3Z" stroke="#2DA0A6" stroke-width="2"/>
<path d="M1 16C1 14.8954 1.89543 14 3 14H7C8.10457 14 9 14.8954 9 16V20C9 21.1046 8.10457 22 7 22H3C1.89543 22 1 21.1046 1 20V16Z" stroke="#2DA0A6" stroke-width="2"/>
<path d="M14 16C14 14.8954 14.8954 14 16 14H20C21.1046 14 22 14.8954 22 16V20C22 21.1046 21.1046 22 20 22H16C14.8954 22 14 21.1046 14 20V16Z" stroke="#2DA0A6" stroke-width="2"/>
</svg>
