<svg width="10" height="10" viewBox="0 0 10 10" fill="none" xmlns="http://www.w3.org/2000/svg">
<path d="M0.292893 0.292893C0.683418 -0.0976311 1.31658 -0.0976311 1.70711 0.292893L8.77817 7.36396C9.1687 7.75449 9.1687 8.38765 8.77817 8.77817C8.38765 9.1687 7.75449 9.1687 7.36396 8.77817L0.292893 1.70711C-0.0976312 1.31658 -0.097631 0.683417 0.292893 0.292893Z" fill="#A0A0A0"/>
<path d="M8.7784 0.292893C8.38787 -0.0976311 7.75471 -0.0976311 7.36418 0.292893L0.293114 7.36396C-0.0974098 7.75449 -0.0974096 8.38765 0.293115 8.77817C0.683639 9.1687 1.3168 9.1687 1.70733 8.77817L8.7784 1.70711C9.16892 1.31658 9.16892 0.683417 8.7784 0.292893Z" fill="#A0A0A0"/>
</svg>
