<svg width="24" height="24" viewBox="0 0 24 24" fill="none" xmlns="http://www.w3.org/2000/svg">
<path d="M22.0373 2.94558C20.7959 1.61128 19.0565 0.852075 17.234 0.849261C15.4101 0.851372 13.6688 1.61017 12.4255 2.94473L12.0018 3.39248L11.578 2.94473C9.11101 0.289535 4.95858 0.137051 2.30343 2.60408C2.18578 2.71344 2.07215 2.82702 1.96278 2.94473C-0.654261 5.76753 -0.654261 10.13 1.96278 12.9528L11.3791 22.8829C11.7048 23.2268 12.2477 23.2416 12.5916 22.9158C12.6029 22.9051 12.6139 22.8942 12.6245 22.8829L22.0374 12.9528C24.6542 10.1303 24.6542 5.76808 22.0373 2.94558ZM20.7962 11.7717H20.7953L12.0018 21.0465L3.20738 11.7717C1.20811 9.61485 1.20811 6.28187 3.20738 4.12499C5.02296 2.15718 8.09006 2.0338 10.0579 3.84938C10.1534 3.93753 10.2453 4.02945 10.3335 4.12499L11.3791 5.22806C11.7236 5.57042 12.2799 5.57042 12.6245 5.22806L13.6701 4.12585C15.4857 2.15804 18.5528 2.03465 20.5206 3.85023C20.6161 3.93838 20.708 4.0303 20.7962 4.12585C22.8129 6.28615 22.8276 9.6252 20.7962 11.7717Z" fill="#2DA0A6"/>
</svg>
