<svg width="26" height="26" viewBox="0 0 26 26" fill="none" xmlns="http://www.w3.org/2000/svg">
<path d="M13 7.71875C10.0598 7.71875 7.66797 10.1105 7.66797 13.0508C7.66797 15.991 10.0598 18.3828 13 18.3828C15.9402 18.3828 18.332 15.991 18.332 13.0508C18.332 10.1105 15.9402 7.71875 13 7.71875ZM13 7.71875C10.0598 7.71875 7.66797 10.1105 7.66797 13.0508C7.66797 15.991 10.0598 18.3828 13 18.3828C15.9402 18.3828 18.332 15.991 18.332 13.0508C18.332 10.1105 15.9402 7.71875 13 7.71875ZM22.1914 0H3.80859C1.70625 0 0 1.70625 0 3.80859V22.1914C0 24.2938 1.70625 26 3.80859 26H22.1914C24.2938 26 26 24.2938 26 22.1914V3.80859C26 1.70625 24.2938 0 22.1914 0ZM13 19.9062C9.22193 19.9062 6.14453 16.8289 6.14453 13.0508C6.14453 9.27261 9.22193 6.19531 13 6.19531C16.7781 6.19531 19.8555 9.27261 19.8555 13.0508C19.8555 16.8289 16.7781 19.9062 13 19.9062ZM21.3789 6.19531C20.541 6.19531 19.8555 5.50977 19.8555 4.67188C19.8555 3.83398 20.541 3.14844 21.3789 3.14844C22.2168 3.14844 22.9023 3.83398 22.9023 4.67188C22.9023 5.50977 22.2168 6.19531 21.3789 6.19531ZM13 7.71875C10.0598 7.71875 7.66797 10.1105 7.66797 13.0508C7.66797 15.991 10.0598 18.3828 13 18.3828C15.9402 18.3828 18.332 15.991 18.332 13.0508C18.332 10.1105 15.9402 7.71875 13 7.71875ZM13 7.71875C10.0598 7.71875 7.66797 10.1105 7.66797 13.0508C7.66797 15.991 10.0598 18.3828 13 18.3828C15.9402 18.3828 18.332 15.991 18.332 13.0508C18.332 10.1105 15.9402 7.71875 13 7.71875ZM13 7.71875C10.0598 7.71875 7.66797 10.1105 7.66797 13.0508C7.66797 15.991 10.0598 18.3828 13 18.3828C15.9402 18.3828 18.332 15.991 18.332 13.0508C18.332 10.1105 15.9402 7.71875 13 7.71875Z" fill="#2DA0A6"/>
</svg>
