<svg width="16" height="15" viewBox="0 0 16 15" fill="none" xmlns="http://www.w3.org/2000/svg">
<path d="M9.01303 2.09365L9.01301 2.09363L8.73053 2.39479L8.00117 3.17234L7.27182 2.39479L6.98934 2.09363L6.98307 2.08695L6.9831 2.08693C5.71453 0.709448 3.58388 0.631134 2.21967 1.90981L9.01303 2.09365ZM9.01303 2.09365L9.01834 2.0879M9.01303 2.09365L9.01834 2.0879M9.01834 2.0879C9.65888 1.39423 10.5538 1.00157 11.4891 1.0001M9.01834 2.0879L11.4891 1.0001M11.4891 1.0001C12.423 1.00193 13.3164 1.39434 13.9557 2.08719C15.3471 3.60174 15.3481 5.94466 13.9588 7.46044L8.00113 13.8013L2.04124 7.46035C0.651844 5.94435 0.65292 3.60126 2.04447 2.08653C2.10055 2.02566 2.15894 1.96677 2.21953 1.90994L11.4891 1.0001Z" stroke="#D0D0D0" stroke-width="2"/>
</svg>
