<svg width="16" height="15" viewBox="0 0 16 15" fill="none" xmlns="http://www.w3.org/2000/svg">
<path d="M14.6915 1.41007C13.864 0.512622 12.7043 0.00198694 11.4893 9.39478e-05C10.2734 0.00151369 9.11252 0.511878 8.28366 1.40949L8.00117 1.71065L7.71869 1.40949C6.07401 -0.376375 3.30572 -0.478935 1.53562 1.18037C1.45719 1.25393 1.38143 1.33033 1.30852 1.40949C-0.436174 3.3081 -0.436174 6.2423 1.30852 8.14091L7.58604 14.8198C7.80322 15.0511 8.16515 15.061 8.39443 14.8419C8.40193 14.8348 8.40924 14.8274 8.41634 14.8198L14.6916 8.14091C16.4361 6.24251 16.4361 3.30847 14.6915 1.41007Z" fill="#BF573F"/>
</svg>
