<svg width="23" height="23" viewBox="0 0 23 23" fill="none" xmlns="http://www.w3.org/2000/svg">
<path d="M10.5691 0.494629C4.74145 0.494629 0 5.08582 0 10.7288C0 16.3721 4.74145 20.9629 10.5691 20.9629C16.3971 20.9629 21.1382 16.3721 21.1382 10.7288C21.1382 5.08582 16.3971 0.494629 10.5691 0.494629ZM10.5691 19.0736C5.81723 19.0736 1.95122 15.3301 1.95122 10.7288C1.95122 6.12756 5.81723 2.38401 10.5691 2.38401C15.321 2.38401 19.187 6.12751 19.187 10.7288C19.187 15.3301 15.321 19.0736 10.5691 19.0736Z" fill="#2DA0A6"/>
<path d="M22.716 21.1532L18.1224 16.7053C17.7413 16.3362 17.124 16.3362 16.7429 16.7053C16.3617 17.074 16.3617 17.6723 16.7429 18.0411L21.3364 22.489C21.527 22.6735 21.7764 22.7658 22.0262 22.7658C22.2756 22.7658 22.5254 22.6735 22.716 22.489C23.0971 22.1203 23.0971 21.522 22.716 21.1532Z" fill="#2DA0A6"/>
</svg>
