<svg width="16" height="20" viewBox="0 0 16 20" fill="none" xmlns="http://www.w3.org/2000/svg">
<path d="M14.222 5.45428C13.9863 5.45428 13.7602 5.55005 13.5935 5.72053C13.4268 5.89101 13.3331 6.12223 13.3331 6.36332V16.5364C13.3076 16.9961 13.1055 17.4269 12.7709 17.7349C12.4362 18.0429 11.9961 18.2032 11.5464 18.1809H4.45312C4.00342 18.2032 3.56332 18.0429 3.22868 17.7349C2.89403 17.4269 2.69195 16.9961 2.66645 16.5364V6.36332C2.66645 6.12223 2.5728 5.89101 2.4061 5.72053C2.2394 5.55005 2.01331 5.45428 1.77756 5.45428C1.54181 5.45428 1.31572 5.55005 1.14902 5.72053C0.982323 5.89101 0.888672 6.12223 0.888672 6.36332V16.5364C0.914044 17.4784 1.30341 18.3717 1.9715 19.0207C2.63959 19.6697 3.53194 20.0215 4.45312 19.999H11.5464C12.4676 20.0215 13.36 19.6697 14.0281 19.0207C14.6962 18.3717 15.0855 17.4784 15.1109 16.5364V6.36332C15.1109 6.12223 15.0172 5.89101 14.8505 5.72053C14.6838 5.55005 14.4578 5.45428 14.222 5.45428Z" fill="#D0D0D0"/>
<path d="M15.1111 2.72713H11.5556V0.909045C11.5556 0.667951 11.4619 0.436732 11.2952 0.266253C11.1285 0.095774 10.9024 0 10.6667 0H5.33333C5.09759 0 4.87149 0.095774 4.70479 0.266253C4.5381 0.436732 4.44444 0.667951 4.44444 0.909045V2.72713H0.888889C0.653141 2.72713 0.427049 2.82291 0.260349 2.99339C0.0936505 3.16387 0 3.39509 0 3.63618C0 3.87727 0.0936505 4.10849 0.260349 4.27897C0.427049 4.44945 0.653141 4.54522 0.888889 4.54522H15.1111C15.3469 4.54522 15.573 4.44945 15.7397 4.27897C15.9064 4.10849 16 3.87727 16 3.63618C16 3.39509 15.9064 3.16387 15.7397 2.99339C15.573 2.82291 15.3469 2.72713 15.1111 2.72713ZM6.22222 2.72713V1.81809H9.77778V2.72713H6.22222Z" fill="#D0D0D0"/>
<path d="M7.11176 14.5447V8.18141C7.11176 7.94031 7.01811 7.70909 6.85141 7.53861C6.68471 7.36814 6.45862 7.27236 6.22287 7.27236C5.98713 7.27236 5.76103 7.36814 5.59433 7.53861C5.42764 7.70909 5.33398 7.94031 5.33398 8.18141V14.5447C5.33398 14.7858 5.42764 15.017 5.59433 15.1875C5.76103 15.358 5.98713 15.4538 6.22287 15.4538C6.45862 15.4538 6.68471 15.358 6.85141 15.1875C7.01811 15.017 7.11176 14.7858 7.11176 14.5447Z" fill="#D0D0D0"/>
<path d="M10.6664 14.5447V8.18141C10.6664 7.94031 10.5728 7.70909 10.4061 7.53861C10.2394 7.36814 10.0133 7.27236 9.77756 7.27236C9.54181 7.27236 9.31572 7.36814 9.14902 7.53861C8.98232 7.70909 8.88867 7.94031 8.88867 8.18141V14.5447C8.88867 14.7858 8.98232 15.017 9.14902 15.1875C9.31572 15.358 9.54181 15.4538 9.77756 15.4538C10.0133 15.4538 10.2394 15.358 10.4061 15.1875C10.5728 15.017 10.6664 14.7858 10.6664 14.5447Z" fill="#D0D0D0"/>
</svg>
