<svg width="12" height="14" viewBox="0 0 12 14" fill="none" xmlns="http://www.w3.org/2000/svg">
<path d="M4 2.33325V1.99992C4 1.55792 4.176 1.13392 4.48867 0.821252C4.80067 0.508585 5.22467 0.333252 5.66667 0.333252H6.33333C6.77533 0.333252 7.19934 0.508585 7.512 0.821252C7.82467 1.13392 8 1.55792 8 1.99992V2.33325H11.3333C11.7013 2.33325 12 2.63192 12 2.99992C12 3.36792 11.7013 3.66659 11.3333 3.66659H10.6667V10.9999C10.6667 12.4726 9.47333 13.6666 8 13.6666C6.77867 13.6666 5.222 13.6666 4 13.6666C2.52733 13.6666 1.33333 12.4726 1.33333 10.9999V3.66659H0.666667C0.298667 3.66659 0 3.36792 0 2.99992C0 2.63192 0.298667 2.33325 0.666667 2.33325H4ZM9.33333 3.66659H2.66667V10.9999C2.66667 11.7366 3.264 12.3333 4 12.3333H8C8.73667 12.3333 9.33333 11.7366 9.33333 10.9999V3.66659ZM6.66667 5.66659V10.3333C6.66667 10.7013 6.96533 10.9999 7.33333 10.9999C7.70133 10.9999 8 10.7013 8 10.3333V5.66659C8 5.29859 7.70133 4.99992 7.33333 4.99992C6.96533 4.99992 6.66667 5.29859 6.66667 5.66659ZM4 5.66659V10.3333C4 10.7013 4.29867 10.9999 4.66667 10.9999C5.03467 10.9999 5.33333 10.7013 5.33333 10.3333V5.66659C5.33333 5.29859 5.03467 4.99992 4.66667 4.99992C4.29867 4.99992 4 5.29859 4 5.66659ZM6.66667 2.33325V1.99992C6.66667 1.91125 6.632 1.82659 6.56934 1.76392C6.50667 1.70192 6.422 1.66659 6.33333 1.66659C6.11533 1.66659 5.88467 1.66659 5.66667 1.66659C5.57867 1.66659 5.494 1.70192 5.43134 1.76392C5.36867 1.82659 5.33333 1.91125 5.33333 1.99992V2.33325H6.66667Z" fill="#2DA0A6"/>
</svg>
