<svg width="32" height="20" viewBox="0 0 32 20" fill="none" xmlns="http://www.w3.org/2000/svg">
<path d="M26.5533 11.3707C26.036 10.7174 26.184 10.4267 26.5533 9.84275C26.56 9.83608 30.8307 3.93475 31.2707 1.93341L31.2733 1.93208C31.492 1.20275 31.2733 0.666748 30.216 0.666748H26.7173C25.8267 0.666748 25.416 1.12675 25.196 1.64141C25.196 1.64141 23.4147 5.90541 20.8947 8.66941C20.0813 9.46808 19.7053 9.72408 19.2613 9.72408C19.0427 9.72408 18.7027 9.46808 18.7027 8.73875V1.93208C18.7027 1.05741 18.4533 0.666748 17.716 0.666748H12.2147C11.656 0.666748 11.324 1.07475 11.324 1.45475C11.324 2.28408 12.584 2.47475 12.7147 4.80808V9.87075C12.7147 10.9801 12.5133 11.1841 12.0667 11.1841C10.8773 11.1841 7.99067 6.90275 6.28 2.00275C5.93467 1.05208 5.59733 0.668081 4.7 0.668081H1.2C0.201333 0.668081 0 1.12808 0 1.64275C0 2.55208 1.18933 7.07341 5.53067 13.0467C8.424 17.1241 12.4987 19.3334 16.2053 19.3334C18.4333 19.3334 18.7053 18.8427 18.7053 17.9987C18.7053 14.1027 18.504 13.7347 19.62 13.7347C20.1373 13.7347 21.028 13.9907 23.108 15.9574C25.4853 18.2894 25.876 19.3334 27.2067 19.3334H30.7053C31.7027 19.3334 32.208 18.8427 31.9173 17.8747C31.252 15.8387 26.756 11.6507 26.5533 11.3707Z" fill="#2DA0A6"/>
</svg>
