<svg width="14" height="16" viewBox="0 0 14 16" fill="none" xmlns="http://www.w3.org/2000/svg">
<path d="M9.33333 1.6V0.8C9.33333 0.3584 9.68178 0 10.1111 0C10.5404 0 10.8889 0.3584 10.8889 0.8V1.6C12.607 1.6 14 3.0328 14 4.8V12.8C14 14.5672 12.607 16 10.8889 16C8.66444 16 5.33478 16 3.11111 16C1.393 16 0 14.5672 0 12.8V4.8C0 3.0328 1.393 1.6 3.11111 1.6V0.8C3.11111 0.3584 3.45956 0 3.88889 0C4.31822 0 4.66667 0.3584 4.66667 0.8V1.6H9.33333ZM12.4444 8H1.55556V12.8C1.55556 13.6832 2.25167 14.4 3.11111 14.4H10.8889C11.7476 14.4 12.4444 13.6832 12.4444 12.8V8ZM10.8889 3.2V4C10.8889 4.4416 10.5404 4.8 10.1111 4.8C9.68178 4.8 9.33333 4.4416 9.33333 4V3.2H4.66667V4C4.66667 4.4416 4.31822 4.8 3.88889 4.8C3.45956 4.8 3.11111 4.4416 3.11111 4V3.2C2.25167 3.2 1.55556 3.916 1.55556 4.8V6.4H12.4444V4.8C12.4444 3.916 11.7476 3.2 10.8889 3.2Z" fill="#2DA0A6"/>
</svg>
