<svg width="20" height="19" viewBox="0 0 20 19" fill="none" xmlns="http://www.w3.org/2000/svg">
<path d="M15.8356 13.3169C14.4605 13.3169 13.3418 14.4356 13.3418 15.8107C13.3418 17.1857 14.4605 18.3044 15.8356 18.3044C17.2106 18.3044 18.3293 17.1857 18.3293 15.8107C18.3293 14.4356 17.2106 13.3169 15.8356 13.3169ZM15.8356 16.8082C15.2854 16.8082 14.8381 16.3608 14.8381 15.8107C14.8381 15.2605 15.2854 14.8132 15.8356 14.8132C16.3857 14.8132 16.8331 15.2605 16.8331 15.8107C16.8331 16.3608 16.3857 16.8082 15.8356 16.8082Z" fill="white"/>
<path d="M19.841 3.67853C19.6994 3.49724 19.4821 3.3915 19.252 3.3915H4.618L3.94467 0.5743C3.86412 0.237657 3.56311 3.41661e-09 3.21697 3.41661e-09H0.748129C0.334924 -3.90593e-05 0 0.334884 0 0.74809C0 1.16129 0.334924 1.49622 0.748129 1.49622H2.62646L5.05788 11.6698C5.13843 12.0067 5.43945 12.2441 5.78558 12.2441H17.4315C17.7755 12.2441 18.0752 12.0097 18.1577 11.676L19.9782 4.3194C20.0333 4.096 19.9827 3.85982 19.841 3.67853ZM16.8462 10.7479H6.37609L4.97558 4.88776H18.2961L16.8462 10.7479Z" fill="white"/>
<path d="M6.78283 13.3169C5.40774 13.3169 4.28906 14.4356 4.28906 15.8107C4.28906 17.1857 5.40778 18.3044 6.78283 18.3044C8.15787 18.3044 9.27659 17.1857 9.27659 15.8107C9.27659 14.4356 8.15787 13.3169 6.78283 13.3169ZM6.78283 16.8082C6.23271 16.8082 5.78532 16.3608 5.78532 15.8107C5.78532 15.2605 6.23271 14.8132 6.78283 14.8132C7.33295 14.8132 7.78033 15.2605 7.78033 15.8107C7.78033 16.3608 7.33295 16.8082 6.78283 16.8082Z" fill="white"/>
</svg>
