<svg width="12" height="8" viewBox="0 0 12 8" fill="none" xmlns="http://www.w3.org/2000/svg">
<g clip-path="url(#clip0_2_28587)">
<path d="M2.20643 3.29292L4.49943 5.58592L9.79243 0.292919C9.98103 0.110761 10.2336 0.00996643 10.4958 0.0122448C10.758 0.0145232 11.0088 0.119692 11.1942 0.3051C11.3796 0.490508 11.4848 0.741321 11.4871 1.00352C11.4894 1.26572 11.3886 1.51832 11.2064 1.70692L5.20643 7.70692C5.0189 7.89439 4.76459 7.99971 4.49943 7.99971C4.23427 7.99971 3.97996 7.89439 3.79243 7.70692L0.792431 4.70692C0.610273 4.51832 0.509478 4.26572 0.511757 4.00352C0.514035 3.74132 0.619204 3.49051 0.804613 3.3051C0.990021 3.11969 1.24083 3.01453 1.50303 3.01225C1.76522 3.00997 2.01783 3.11076 2.20643 3.29292Z" fill="white"/>
</g>
<defs>
<clipPath id="clip0_2_28587">
<rect width="12" height="8" fill="white"/>
</clipPath>
</defs>
</svg>
