<svg width="13" height="12" viewBox="0 0 13 12" fill="none" xmlns="http://www.w3.org/2000/svg">
<path d="M11.8331 1.79834C11.2891 1.25423 10.5657 0.954598 9.79621 0.954598C9.02675 0.954598 8.30334 1.25423 7.75923 1.79834L3.21818 6.33935C2.54429 7.01325 2.54429 8.10976 3.21822 8.78374C3.89216 9.45763 4.98871 9.45759 5.66261 8.78366L8.65279 5.79347C8.8778 5.56847 8.8778 5.2037 8.65279 4.97869C8.42783 4.75369 8.06301 4.75369 7.83801 4.97869L4.84783 7.96888C4.62321 8.19357 4.25766 8.19353 4.03301 7.96892C3.80835 7.74426 3.80835 7.37871 4.03297 7.1541L8.57401 2.61316C8.9005 2.28672 9.33453 2.10692 9.79621 2.10692C10.2579 2.10692 10.6919 2.28672 11.0184 2.61316C11.6923 3.2871 11.6923 4.38361 11.0184 5.05755L6.07002 10.0059C4.94677 11.129 3.1192 11.129 1.99607 10.0059C1.45196 9.46178 1.15229 8.73837 1.15229 7.96892C1.15229 7.19946 1.45196 6.47601 1.99607 5.9319L6.94437 0.98352C7.16938 0.758517 7.16938 0.393741 6.94437 0.168738C6.71941 -0.0562268 6.3546 -0.0562652 6.12959 0.168738L1.18129 5.11712C0.419509 5.87886 0 6.89164 0 7.96892C0 9.04619 0.419509 10.059 1.18129 10.8207C1.96761 11.607 3.00013 12.0001 4.03301 12C5.06565 11.9999 6.09863 11.6068 6.8848 10.8207L11.8332 5.87229C12.9564 4.74908 12.9563 2.92155 11.8331 1.79834Z" fill="#2DA0A6"/>
</svg>
