<svg width="16" height="16" viewBox="0 0 16 16" fill="none" xmlns="http://www.w3.org/2000/svg">
<g clip-path="url(#clip0_2_30710)">
<path d="M2.88179 13.4721C3.04179 13.4721 3.07379 13.4561 3.21779 13.4241L6.09779 12.8481C6.40179 12.7681 6.70579 12.6241 6.94579 12.3841L13.9218 5.40809C14.9938 4.33609 14.9938 2.49609 13.9218 1.42409L13.3298 0.800094C12.2578 -0.271906 10.4018 -0.271906 9.32979 0.800094L2.35379 7.79209C2.12979 8.01609 1.96979 8.33609 1.88979 8.64009L1.28179 11.5521C1.20179 12.0961 1.36179 12.6241 1.74579 13.0081C2.04979 13.3121 2.49779 13.4721 2.88179 13.4721ZM3.42579 8.94409L10.4018 1.95209C10.8658 1.48809 11.7138 1.48809 12.1618 1.95209L12.7698 2.56009C13.3138 3.10409 13.3138 3.87209 12.7698 4.40009L5.80979 11.3921L2.84979 11.8881L3.42579 8.94409Z" fill="#2DA0A6"/>
<path d="M13.8592 14.4641H2.0512C1.5872 14.4641 1.2832 14.7681 1.2832 15.2321C1.2832 15.6961 1.6672 16.0001 2.0512 16.0001H13.7952C14.2592 16.0001 14.6432 15.6961 14.6432 15.2321C14.6272 14.7681 14.2432 14.4641 13.8592 14.4641Z" fill="#2DA0A6"/>
</g>
<defs>
<clipPath id="clip0_2_30710">
<rect width="16" height="16" fill="white"/>
</clipPath>
</defs>
</svg>
