<svg width="24" height="24" viewBox="0 0 24 24" fill="none" xmlns="http://www.w3.org/2000/svg">
<path d="M12.9375 17.4375C12.9375 17.9553 12.5178 18.375 12 18.375C11.4822 18.375 11.0625 17.9553 11.0625 17.4375C11.0625 16.9198 11.4822 16.5 12 16.5C12.5178 16.5 12.9375 16.9198 12.9375 17.4375ZM12 5.625C11.4822 5.625 11.0625 6.04471 11.0625 6.56249V13.6874C11.0625 14.2052 11.4822 14.6249 12 14.6249C12.5178 14.6249 12.9375 14.2052 12.9375 13.6874V6.56249C12.9375 6.04471 12.5178 5.625 12 5.625ZM23.9488 22.7601C24.1979 23.4949 23.4945 24.1977 22.76 23.9489L18.0617 22.3563C16.2272 23.4321 14.1411 23.9985 11.9992 23.9985C5.36676 23.9985 0 18.6309 0 11.9992C0 5.36671 5.3676 0 11.9992 0C18.6317 0 23.9985 5.36765 23.9985 11.9992C23.9985 14.1411 23.432 16.2272 22.3562 18.0617L23.9488 22.7601ZM20.5375 17.4422C21.5751 15.8181 22.1236 13.936 22.1236 11.9992C22.1236 6.40303 17.5947 1.87486 11.9992 1.87486C6.40303 1.87486 1.8749 6.40378 1.8749 11.9992C1.8749 17.5955 6.40382 22.1236 11.9992 22.1236C13.936 22.1236 15.8181 21.5751 17.4422 20.5375C17.682 20.3843 17.9784 20.3483 18.2479 20.4396L21.5636 21.5637L20.4396 18.2479C20.3483 17.9784 20.3843 17.682 20.5375 17.4422Z" fill="#2DA0A6"/>
</svg>
