<svg width="68" height="51" viewBox="0 0 68 51" fill="none" xmlns="http://www.w3.org/2000/svg">
<path d="M34.2598 0.733398C34.1624 0.733398 34.0974 0.733398 34 0.733398C33.9026 0.733398 33.8376 0.733398 33.7402 0.733398C15.1328 0.733398 0 15.2509 0 33.0651C0 39.2778 1.94842 44.92 5.1958 49.7697C5.39064 49.9599 5.8128 50.372 6.20249 50.1501C6.62462 49.8965 6.29993 49.0724 6.17002 48.7871C3.76695 44.4762 2.43553 39.5631 2.43553 34.3647C2.43553 17.5965 16.3668 3.93486 33.5129 3.80807C33.6753 3.80807 33.8376 3.80807 34 3.80807C34.1624 3.80807 34.3247 3.80807 34.4871 3.80807C51.6657 3.93486 65.5644 17.5965 65.5644 34.3647C65.5644 39.5314 64.2328 44.4128 61.8948 48.692H61.9598C61.9598 48.692 61.3431 49.8648 61.8623 50.1501C62.155 50.3086 62.4796 50.1184 62.7066 49.9282C66.0191 45.0468 68 39.3412 68 33.0651C68 15.2509 52.8672 0.733398 34.2598 0.733398Z" fill="#6A301A"/>
<path fill-rule="evenodd" clip-rule="evenodd" d="M46.5668 49.8969L47.2487 47.678L44.9756 44.0645L35.3634 44.0328L35.2984 44.0645C33.5449 45.1105 33.285 47.044 34.4541 49.77L27.3424 49.7383C27.3424 49.7066 27.5372 49.2312 27.5372 49.2312H26.0759L26.563 47.3611L25.1991 43.2086H24.16L24.095 43.2403C23.7378 43.4305 23.3481 43.6207 22.9584 43.7792C22.1466 44.1279 21.3023 44.5082 20.8151 45.0471L20.7827 45.0788L20.7502 45.1422C20.4255 46.0614 20.1007 46.949 19.9383 47.8365L19.9059 47.9316L20.7502 49.5482L14.6776 49.4848L16.8209 43.272L18.4445 41.2434C18.9641 40.0706 19.0291 39.4049 19.1265 38.5491C19.159 38.2955 19.1915 37.9785 19.2239 37.6616L19.2564 37.3129L17.0807 37.408L17.0482 37.6299C16.8209 38.6759 16.2688 39.3415 15.3271 39.7536C14.0931 40.3875 13.3137 41.4653 12.8266 42.4479C11.8524 39.4366 12.4369 38.3272 12.7617 37.6932C14.5477 35.411 15.6843 35.3793 16.8858 35.3793C17.6003 35.3793 18.3796 35.3793 19.2564 34.8722C19.8734 34.5235 21.075 33.636 21.6595 33.1605C23.2831 32.5582 24.3873 30.8148 25.6862 28.7862C27.0825 26.5673 28.7063 24.0315 31.4665 22.4784L32.0835 22.1297L31.4016 21.9395C29.3558 21.3689 28.3166 20.8935 27.797 20.2595C28.3491 19.5939 28.966 19.055 29.713 18.6429L30.0377 18.4845L29.8104 18.1991C28.9986 17.2166 28.7387 16.2973 28.9336 15.3781C29.2583 14.0785 30.6547 12.7789 33.0577 11.5426C31.7263 13.2544 31.1743 15.1562 31.6938 16.4241C31.9861 17.1532 32.7655 18.0407 34.8113 18.0407C35.0387 18.0407 35.266 18.0407 35.5257 18.009C37.3118 17.7554 38.5458 17.6286 39.7798 17.6286C40.9489 17.6286 42.1179 17.7237 43.5143 17.9456H43.7416C45.2029 17.9456 46.307 17.3116 46.7617 16.2022C47.3137 14.8709 46.7617 13.0958 45.3003 11.4792C47.6385 12.1766 49.0673 13.1593 49.5544 14.3954C49.9766 15.4414 49.7168 16.7094 48.775 18.1357L48.6451 18.326L50.691 20.1961C49.3596 21.1471 48.1255 21.7493 46.4044 21.9395L45.9823 21.9712L46.1771 22.3516C46.9565 23.9364 46.7942 25.5213 45.6251 27.2013L45.5276 27.3281L49.0673 36.4253L49.1972 43.1452L49.2297 43.2086C49.9441 44.3814 51.3729 46.7271 52.9317 47.8048L54.0358 49.8969H46.5668Z" fill="#BD732C"/>
<path d="M51.7319 49.2621L51.3747 48.7866L51.0175 49.2938H50.0433L47.6077 49.3255L48.0299 48.4696L50.0433 48.4062L52.0567 48.3428L52.4463 49.2621H51.7319ZM45.5944 43.2078L46.7959 40.355C46.3088 41.0206 45.7892 41.5912 45.2697 42.0667C44.815 42.4787 44.3279 42.8274 43.8408 43.1127H43.5161H39.4244H38.3528H35.6899H34.1961L32.41 45.5217V47.3919H30.624H29.1952L30.624 43.6515L30.6565 43.5564L30.624 43.4614C29.6173 40.9889 29.9421 38.1996 30.624 35.315V35.2834C29.4874 37.5973 28.7081 39.9746 29.1627 42.6689H27.7987H25.9478L25.2334 42.2568C26.24 38.992 25.688 37.0901 24.1292 36.1075L23.6421 36.5512C25.2334 38.0411 25.8179 39.8795 23.9669 42.5104L21.0118 43.7783L19.6803 44.9828L19.0634 47.5187L16.3031 47.4553H16.0758L16.3031 46.5994L17.1149 43.6832L18.8035 41.9082L20.07 36.6781L21.7586 33.7935C22.4731 33.3498 23.4473 32.4622 24.1617 32.0185L27.7987 27.1054L28.9354 25.5522L30.624 24.2526L32.8972 22.5092L32.5724 25.7741C32.3776 26.9152 34.4234 27.454 35.6574 28.1831C35.8198 28.2782 35.9497 28.3733 36.0796 28.4683C36.2419 29.3876 35.625 29.768 36.2419 30.18C36.9563 30.6238 37.6383 31.1626 38.2878 31.5748C38.645 31.8283 39.0022 32.0502 39.3594 32.2087C39.4568 32.2404 39.5218 32.2721 39.6192 32.3038H43.3537L43.4836 32.177L45.2371 30.4019L45.6593 29.9581L46.9258 33.0328L48.1598 36.0441L48.0299 43.0493L50.0433 45.9972L50.9526 47.3602H50.0433H48.4521L46.9583 45.173L45.5944 43.2078ZM31.3709 49.2621L31.0137 48.5964L30.6565 49.0084L30.4941 49.1986L28.2859 49.2303L28.838 48.2794H30.6565L32.8647 48.2477L33.0271 49.2303L31.3709 49.2621ZM27.7663 47.899L26.3375 43.4614H27.8313H29.325C29.0653 44.8877 28.4482 46.3141 27.8313 47.7088L27.7663 47.899ZM19.8102 49.2303L19.0309 48.7866L18.9984 49.2621L16.368 49.1986L15.7185 49.1669L15.9134 48.4062H16.4005H19.6803L20.1674 49.2303H19.8102ZM16.7577 36.995C16.6603 37.312 16.5304 37.5973 16.368 37.8508C15.5887 38.992 14.0299 39.721 12.9908 40.9255C12.7959 39.5942 12.9908 38.4848 13.6402 37.5656C14.3871 36.7098 15.3613 36.3294 16.4005 36.1075C17.667 35.8222 18.9659 35.7271 19.8427 35.0615C19.5179 36.3611 18.4788 36.995 16.7577 36.995ZM30.6565 21.0194C30.2993 20.8292 30.007 20.5439 29.8446 20.1319C30.072 19.91 30.3317 19.7198 30.6565 19.593C31.7931 19.1176 33.5142 19.276 35.6574 20.005L35.7223 19.9734C36.2744 19.6247 36.6641 19.276 37.2486 19.0859C37.4435 18.9591 37.8656 18.864 38.3852 18.8323C38.71 18.8005 39.0672 18.7688 39.4568 18.7688C40.496 18.7371 41.5352 18.8323 41.8599 18.9591C42.4119 19.1809 42.9965 19.5613 43.5486 20.1319C44.198 20.7975 44.7825 21.6534 45.1722 22.6677C45.2047 22.7945 45.2697 22.953 45.3021 23.1115C45.5294 23.999 45.7243 25.3303 45.3021 26.0276C45.2047 26.2178 45.0423 26.3763 44.815 26.4397C43.9707 26.5982 43.8083 26.0593 43.9058 24.7597H44.2305C44.815 24.6646 45.1722 23.0164 44.9125 22.7628C44.4253 22.5092 43.9058 22.4775 43.5486 22.8262C43.1913 23.1748 43.0614 23.8405 43.3212 25.045C43.3862 25.2986 43.4836 25.5522 43.5486 25.7424C43.9707 26.9469 44.3929 27.454 44.815 27.7076L44.9774 29.0389C44.5553 29.7996 44.2954 30.6872 43.5486 31.1309C43.4836 31.1626 43.3862 31.226 43.2887 31.2577C42.4444 31.6064 40.8857 32.0185 39.6517 31.3211L39.5543 31.0993L40.2687 30.8457C39.9764 30.8774 39.7166 30.8774 39.4568 30.8774C39.0672 30.8774 38.71 30.814 38.3852 30.7189C37.2486 30.3702 36.859 29.4193 36.9889 28.0563L35.7223 27.2004L33.9363 25.9642C33.6116 24.4428 34.2286 22.5092 34.3584 20.7975C32.7023 21.3363 31.4683 21.4315 30.6565 21.0194ZM45.1398 19.7515C45.1722 19.6881 45.2371 19.6247 45.2697 19.5613C45.5944 19.2443 46.2764 19.1809 46.9583 19.276C47.8026 19.3711 48.6469 19.6881 48.9067 20.0367C48.5495 20.4489 47.9975 20.7658 46.9583 20.8292C46.8933 20.8292 46.8284 20.8292 46.7634 20.8292C46.049 20.7975 45.5294 20.7024 45.2697 20.5122C45.0098 20.3538 44.9449 20.1002 45.1398 19.7515ZM53.1933 47.6454C51.9592 46.853 50.8227 45.2047 50.0433 44.0002C49.816 43.6515 49.6536 43.3663 49.4912 43.1127L49.3288 36.3928L46.9258 30.2751L45.8217 27.454C46.9908 25.7424 47.2505 24.0307 46.4062 22.319C46.601 22.2873 46.7634 22.2873 46.9258 22.2556C48.0624 22.0654 49.0366 21.6534 50.0108 21.0511C50.368 20.8292 50.7252 20.5756 51.1149 20.2904L50.0108 19.276L49.0041 18.3251C49.5887 17.4375 49.9134 16.6134 50.0108 15.8844V15.092C49.8484 13.7607 48.7768 12.6512 46.9258 11.8271C46.4062 11.6052 45.8542 11.415 45.2371 11.2248C44.9449 11.1297 44.6202 11.0663 44.2954 10.9712C44.6526 11.2882 44.9449 11.6052 45.2371 11.9222C47.2505 14.3312 46.9908 16.6134 45.2371 17.4058C44.7825 17.6278 44.198 17.7229 43.5486 17.6912H43.4836C41.9248 17.4692 40.6584 17.3741 39.3919 17.3741C39.0347 17.3741 38.6774 17.4058 38.3202 17.4058C37.4759 17.4692 36.5991 17.5644 35.6574 17.6912L35.4626 17.7229C30.2343 18.1666 31.2085 13.507 34.2935 10.6226C32.7348 11.3199 31.5333 12.0173 30.624 12.7146C28.156 14.6165 27.9936 16.5183 29.5524 18.4202C28.9029 18.7688 28.3183 19.2443 27.7987 19.8149C27.6689 19.9734 27.539 20.1319 27.4091 20.2904C27.5065 20.4489 27.6364 20.6073 27.7987 20.7341C28.3509 21.2413 29.2926 21.6534 30.624 22.0654C30.8188 22.1288 31.0461 22.1922 31.2735 22.2556C31.0461 22.3824 30.8188 22.5092 30.624 22.6677C29.4874 23.3967 28.5781 24.316 27.7987 25.2669C25.2658 28.3099 24.0318 31.9868 21.4989 32.9377C20.8818 33.4449 19.7128 34.3007 19.1607 34.6177C18.1216 35.1882 17.2773 35.0298 16.368 35.0932C15.2964 35.1565 14.1598 35.4736 12.5361 37.5656C12.049 38.5165 11.5619 39.8795 12.8609 43.2712C13.3155 42.0984 14.0949 40.7354 15.4912 40.0063C15.816 39.8795 16.1082 39.6893 16.368 39.4675C16.8227 39.0871 17.1799 38.5165 17.3747 37.6924L18.9334 37.629C18.7386 39.0237 18.8035 39.6893 18.219 41.084L16.5304 43.2078L16.3355 43.7466L14.2248 49.8009H16.3355L21.2066 49.8326L20.1999 47.8673C20.3623 46.9798 20.687 46.0923 21.0118 45.2047C21.7262 44.444 23.1551 44.0319 24.2267 43.4297H24.9736L26.24 47.2968L25.688 49.4522H27.0843C27.0194 49.6107 26.9545 49.8009 26.8895 49.9594H27.8313H30.6565H34.878C33.5466 47.17 33.6765 45.2364 35.3976 44.1904H35.6899H38.3528H39.4244H43.5161H44.7825L45.2697 44.9828L46.8933 47.582L46.1465 50.0545H46.9583H50.0433H54.5572L53.1933 47.6454Z" fill="#6A301A"/>
<path d="M38.7731 27.264L38.6432 22.1924L38.351 22.7947L37.9612 23.6505L38.351 25.4573L38.7731 27.264ZM35.7205 23.0799C35.818 23.1433 35.9479 23.2067 36.0453 23.2701C36.0128 24.126 36.4025 24.5063 37.2793 24.4746C37.5066 24.5697 37.669 24.7916 37.7664 25.0452C37.9288 23.3969 37.5716 22.3192 35.7531 22.6044C35.6556 22.6044 35.5582 22.6361 35.4608 22.6678C35.136 22.7947 35.4283 22.9215 35.7205 23.0799ZM38.5782 28.6587C38.6432 28.9757 39.0329 29.0391 39.2927 29.0708C39.3576 29.0708 39.3901 29.0708 39.455 29.0708C39.7798 29.0708 40.0721 29.1976 40.3318 29.3878C40.3968 28.7221 39.9421 28.3417 39.455 28.215C38.9679 28.0882 38.4808 28.2467 38.5782 28.6587ZM43.6441 29.1025C43.8065 29.0708 44.0988 29.0074 44.1312 28.7221C44.1962 28.3417 43.8715 28.215 43.5143 28.31C43.1895 28.4051 42.8648 28.7538 42.8972 29.3878C43.0596 29.1976 43.2869 29.1025 43.5143 29.1025C43.5467 29.1025 43.6117 29.1025 43.6441 29.1025ZM35.7205 37.5341L36.5649 39.6261L35.8504 41.8449H35.7205L34.9087 41.7498L35.5582 39.7846L34.8438 37.7876L35.6881 37.5024L35.7205 37.5341Z" fill="#6A301A"/>
</svg>
