<svg width="24" height="24" viewBox="0 0 24 24" fill="none" xmlns="http://www.w3.org/2000/svg">
<path fill-rule="evenodd" clip-rule="evenodd" d="M12 15.548C10.0681 15.548 8.50774 13.9876 8.50774 12.0557C8.50774 10.1238 10.0681 8.56347 12 8.56347C13.9319 8.56347 15.4923 10.1238 15.4923 12.0557C15.4923 13.969 13.9319 15.548 12 15.548ZM12 5.73994C8.52632 5.73994 5.70279 8.56347 5.70279 12.0372C5.70279 15.5108 8.52632 18.3344 12 18.3344C15.4737 18.3344 18.2972 15.5108 18.2972 12.0372C18.2972 8.56347 15.4737 5.73994 12 5.73994ZM12 21.2322C6.89164 21.2322 2.7678 17.0898 2.7678 12C2.7678 10.3653 3.19505 8.82353 3.95666 7.48607L1.93189 5.47988C0.724459 7.35604 0 9.58514 0 12C0 18.6316 5.36842 24 12 24C14.4149 24 16.644 23.2755 18.5201 22.0681L16.5139 20.0619C15.1765 20.805 13.6347 21.2322 12 21.2322ZM22.0495 5.4613L20.0433 7.46749C20.805 8.80495 21.2322 10.3467 21.2322 11.9814C21.2322 13.6161 20.805 15.1579 20.0619 16.4954L22.0681 18.5015C23.2941 16.6254 24 14.3963 24 11.9814C24 9.58514 23.2755 7.35604 22.0495 5.4613ZM12 2.7678C13.6347 2.7678 15.1765 3.19505 16.4954 3.93808L18.5015 1.93189C16.6254 0.724459 14.3963 0 12 0C9.60371 0 7.35604 0.705883 5.47988 1.93189L7.48607 3.93808C8.82353 3.19505 10.3653 2.7678 12 2.7678Z" fill="#2DA0A6"/>
</svg>
