<svg width="24" height="24" viewBox="0 0 24 24" fill="none" xmlns="http://www.w3.org/2000/svg">
<g clip-path="url(#clip0_2_27514)">
<path d="M23.7593 9.63127C23.1264 6.48897 21.3088 3.78162 18.6404 2.00799C16.091 0.313403 13.0267 -0.339459 10.0064 0.16739C9.98639 0.17039 9.96642 0.17339 9.94641 0.17639C3.42791 1.30915 -0.953082 7.53375 0.17963 14.0502C0.269629 14.5721 0.396564 15.093 0.553545 15.5929C1.21438 17.7394 1.05144 20.0398 0.095632 22.0714C-0.0713335 22.4233 -0.0163502 22.8412 0.234614 23.1401C0.485578 23.4391 0.883445 23.5621 1.26336 23.4611L5.74433 22.2374C7.64189 23.3991 9.78441 24 11.9719 24C12.7667 24 13.5676 23.921 14.3654 23.76C17.5077 23.1272 20.215 21.3096 21.9886 18.6412C23.7623 15.9728 24.3911 12.7735 23.7593 9.63127ZM20.3231 17.5334C18.8444 19.7579 16.5879 21.2736 13.9705 21.8005C11.3551 22.3243 8.68671 21.8025 6.46221 20.3238C6.29623 20.2138 6.1033 20.1568 5.90835 20.1568C5.82036 20.1568 5.7314 20.1688 5.64543 20.1919L2.59313 21.0247C3.10903 19.0581 3.07101 16.9756 2.46315 14.997C2.33017 14.5751 2.22418 14.1432 2.14923 13.7083C1.20842 8.29156 4.83657 3.11872 10.2424 2.15495C10.2604 2.15293 10.2784 2.14993 10.2964 2.14693C12.8268 1.71002 15.3962 2.25291 17.5337 3.67259C19.7582 5.15123 21.2729 7.40775 21.7997 10.0252C22.3266 12.6436 21.8017 15.31 20.3231 17.5334Z" fill="white"/>
<path d="M15.998 8.99927H7.99978C7.4469 8.99927 7 9.44617 7 9.99905C7 10.5519 7.4469 10.9988 7.99978 10.9988H15.998C16.5499 10.9988 16.9977 10.5519 16.9977 9.99905C16.9977 9.44617 16.5509 8.99927 15.998 8.99927Z" fill="white"/>
<path d="M15.998 12.9985H7.99978C7.4469 12.9985 7 13.4454 7 13.9983C7 14.5512 7.4469 14.9981 7.99978 14.9981H15.998C16.5499 14.9981 16.9977 14.5512 16.9977 13.9983C16.9977 13.4454 16.5509 12.9985 15.998 12.9985Z" fill="white"/>
</g>
<defs>
<clipPath id="clip0_2_27514">
<rect width="24" height="24" fill="white"/>
</clipPath>
</defs>
</svg>
