<svg width="16" height="16" viewBox="0 0 16 16" fill="none" xmlns="http://www.w3.org/2000/svg">
<circle cx="8" cy="8" r="7.5" stroke="#A0A0A0"/>
<path d="M6.74291 10.335V9.711C6.74291 9.36433 6.81658 9.048 6.96391 8.762C7.11124 8.476 7.28891 8.23767 7.49691 8.047C7.70491 7.85633 7.91291 7.67433 8.12091 7.501C8.32891 7.319 8.50658 7.11967 8.65391 6.903C8.80124 6.67767 8.87491 6.43933 8.87491 6.188C8.87491 5.88467 8.75358 5.629 8.51091 5.421C8.26824 5.213 7.96924 5.109 7.61391 5.109C7.13724 5.109 6.67791 5.291 6.23591 5.655L5.31291 4.524C5.97158 3.9 6.78624 3.588 7.75691 3.588C8.52824 3.588 9.19558 3.81333 9.75891 4.264C10.3222 4.706 10.6039 5.29533 10.6039 6.032C10.6039 6.43067 10.5259 6.79033 10.3699 7.111C10.2139 7.43167 10.0232 7.696 9.79791 7.904C9.57258 8.112 9.34724 8.31133 9.12191 8.502C8.90524 8.684 8.71891 8.88767 8.56291 9.113C8.40691 9.33833 8.32891 9.57667 8.32891 9.828V10.335H6.74291ZM6.72991 13V11.453H8.32891V13H6.72991Z" fill="#121212" fill-opacity="0.4"/>
</svg>
