<svg width="24" height="24" viewBox="0 0 24 24" fill="none" xmlns="http://www.w3.org/2000/svg">
<g clip-path="url(#clip0_2_27586)">
<path d="M11.9989 13.5183C4.7878 13.5183 0.816406 16.9297 0.816406 23.1242C0.816406 23.608 1.20852 24.0001 1.69231 24.0001H22.3055C22.7892 24.0001 23.1814 23.608 23.1814 23.1242C23.1814 16.93 19.21 13.5183 11.9989 13.5183ZM2.60009 22.2483C2.94463 17.6167 6.10227 15.2702 11.9989 15.2702C17.8955 15.2702 21.0532 17.6167 21.398 22.2483H2.60009Z" fill="#2DA0A6"/>
<path d="M12.0016 0C8.68919 0 6.19141 2.54803 6.19141 5.92673C6.19141 9.40439 8.79785 12.2333 12.0016 12.2333C15.2054 12.2333 17.8118 9.40439 17.8118 5.92702C17.8118 2.54803 15.314 0 12.0016 0ZM12.0016 10.4818C9.76366 10.4818 7.94322 8.43853 7.94322 5.92702C7.94322 3.50775 9.65008 1.75181 12.0016 1.75181C14.3155 1.75181 16.06 3.54656 16.06 5.92702C16.06 8.43853 14.2396 10.4818 12.0016 10.4818Z" fill="#2DA0A6"/>
</g>
<defs>
<clipPath id="clip0_2_27586">
<rect width="24" height="24" fill="white"/>
</clipPath>
</defs>
</svg>
